<?xml version="1.0" encoding="utf-8"?>
<!-- Generator: Adobe Illustrator 22.1.0, SVG Export Plug-In . SVG Version: 6.00 Build 0)  -->
<svg version="1.1" id="Calque_1" xmlns="http://www.w3.org/2000/svg" xmlns:xlink="http://www.w3.org/1999/xlink" x="0px" y="0px"
	 viewBox="0 0 1190.6 841.9" style="enable-background:new 0 0 1190.6 841.9;" xml:space="preserve">
<style type="text/css">
	.st0{fill:#FFFFFF;}
	.st1{fill:none;}
</style>
<g>
	<path class="st0" d="M685.4,717.6c0,0.1,0,0.2,0,0.2l0.2-0.4C685.4,717.4,685.4,717.5,685.4,717.6z M676.9,710.9L676.9,710.9
		C677,711,677,711,676.9,710.9L676.9,710.9L676.9,710.9z"/>
	<path class="st0" d="M1108,230.2c-27.5-19.9-60.3-25.9-92.1-34.5c-54.8-14.9-111.3-17.6-167.7-20.3c-56.9-2.8-113.8-0.4-170.1,9.4
		c-12.1,2-24,4.9-36.4,3.8c-2.9-0.2-6.2,0.8-7.8-2.6c-1.4-3.2,1-5.7,3-7.8c6.5-6.8,13.2-13.3,19.8-20.1
		c27.4-28.2,59.4-49.2,96.5-61.8c10.8-3.6,23.9-6.6,31.7,4.1c6.9,9.7-4.8,16.1-11.2,25.5c0,0,2.5,1.4,17.2-10
		c0.8-0.7,1.8-1.4,2.8-2.2c0.1,0,0.1-0.1,0.2-0.2c1.8-1.7,3.2-3.8,4.1-6.1c0.9-2,1.3-4.1,1.4-6.6c0.2-9.4-8.2-12.7-15.2-16.3
		c-5.4-2.7-11.2-3.4-17.3-2.9c-15.5,1.4-30,5.9-43.9,12.9c-35.9,18-65.6,43.9-92.7,73.1c-13.3,14.3-26.2,29.2-47.1,31.2l-2.5,0.2
		c-2.3,0.2-4.6,0.3-6.9,0.5c-34.3,6.4-38,9-38,9c-35.6,8.4-70.6,18.9-105.4,30c-53.9,17.2-105.4,40-154.5,67.6
		c-40.4,22.7-78.3,49.9-112.6,81.5c-40.2,37.1-76.1,77.8-99.6,127.6c-11.7,24.7-15.4,51.5,1.5,76.4c13,19.2,33.3,25.4,55.1,27.9
		c47.4,5.4,94.8,4.5,142.2,0.5c1.9-0.2,3.8-0.2,5.7-0.4c0,0,40.7-4.4,71.3-11.8c1.1-0.3,2.1-0.5,2.9-0.8c0.4-0.1,0.6-0.2,0.9-0.2
		c8.1-2,16.3-4.1,24.5-6c3.8-0.8,8.2-2.4,11.2,0.9c3.6,4.1-0.2,8.4-1.3,12.4c-1.3,5.3-5.3,8.1-10.1,9.9
		c-11.5,4.1-22.8,9.1-35.1,10.5l-0.7-0.1l-10.1,3.2c-11.4,3.5-22.7,6.8-34.1,10.3c-53,16-105.2,35.6-160.8,41.7
		c-4.4,0.5-10.5-0.3-9.8,6c0.7,6.6,7.3,6.3,11.8,5.3c11.8-3,23.7-5.7,35.7-7.7c32.5-5.6,63.4-17.1,94.8-26.9
		c48.8-15.1,98.3-27.8,146.3-45.7c43.4-16.2,87.8-29.8,131.8-44.3c9.4-3.1,19.5-7.8,28.4-6.4c11.6,1.7,10.9,16.4,16.1,24.9
		c13.5,21.9,28.5,42.7,43.4,63.6c15.8,12.1,26.8,29,41.4,42.2c0,0,4.4,5.1,10,10.2c0.1,0,0.1,0,0.2,0h0.1c0.5,0.1,0.9,0.2,1.4,0.3
		c-0.5-0.1-0.9-0.2-1.4-0.2v0.1c0.1,0,0.1,0,0.1,0c2.6,2.5,5.4,4.8,8.2,6.7c0-0.1,0-0.1,0.1-0.2c0-0.1,0.1-0.2,0.2-0.2
		c0.6,0.5,1.2,0.8,1.8,1.3h0.1c4.4,3.2,8.8,6.3,13.2,9.4c16.3,8.1,32.1,17.9,49.2,24.1c18.3,6.5,37.5,13.6,57.1,2.1
		c24-14,36.7-35.1,39.9-62.1c3.6-29.6,1.7-59.3,0.5-89c-1.8-40-7.2-79.8-12.2-119.5c-1.1-9,1.2-14.9,10.4-18.5
		c63.7-24.7,124.7-55.5,185.8-85.7c31.8-15.7,64.6-31.4,86.7-60.9C1142.7,285.4,1147.2,258.6,1108,230.2z M552.7,562.1
		c-47.4,16.5-94.4,33.9-142.8,47.7c-4.8,1.4-11.2,6.8-13.7-0.8c-2.4-7.5,0.8-14.3,10.1-16.7c15.8-4,31.4-8.5,47.2-12.6
		c32.8-8.5,64.4-20.6,94.7-35.8c9.8-4.9,13.7-2.3,14.7,7.8C563.5,559,557.9,560.3,552.7,562.1z M575.4,547
		c-4.6-8.5-3.8-17.1,5.4-23.4c6.9-4.6,13.7-9.3,21.8-12c5.7-1.9,13.3-6.6,9.1-13.8c-3.8-6.7-11.1-4.4-16.7,0.1
		c-2.3,1.9-4.4,4.2-7,5.5c-4.1,2.1-8.4,7.8-13,3.8c-5-4.4-3-10.3,0.1-16.1c26.4-48.9,68.9-71.5,122.7-75.9c2.9-0.2,5.8-0.4,8.7-0.6
		c0.3,0,0.6-0.7,1.4-1.5c-1.2-6.6-8.1-3.6-11.5-6.2c-8.7,0.3-17.6,0.6-26.4,0.9c-9.9,1.9-19.8,3.8-29.6,5.8
		c-16.1,12-33.8,21.9-48.9,35.5c-20.4,18.4-32.3,40.7-34.8,67.8c-0.5,6-2.6,9.1-8.2,12.3c-41,22.6-85.3,36.2-130.3,47.6
		c-16,4.1-18.3,1.4-14.9-15.2c11.7-57.2,22.3-114.7,24.8-173.2c0.3-8.7,4.2-23.5-7.4-23.6c-10.4,0-7.3,15.1-7.2,23.7
		c0.4,63-15.8,123.6-25.3,185.2c-1.7,11.3-11.1,13.1-19.7,15.1c-56.6,13-113.7,22.5-171.8,24.4c-29.8,1.1-59.4-0.2-88.5-6.8
		c-34.4-7.8-50.4-33.7-40.5-67.7c12.7-43.8,39.8-79.6,70.4-111.8c34.4-36.3,74.1-66.7,116.6-93.5c56.3-35.7,117.2-61.3,180.2-82.7
		c42.6-14.6,86.4-25.1,130.3-35.1c2.4-0.5,4.8-1.5,7.2-1.4c5.6,0.4,12.7-4.5,16.4,1.6c3.2,5.1-2.9,9.9-5.1,14.6
		c-10,22.3-18.8,44.8-14.6,70.1c5.6,33.9,27.9,52,58.8,61.8c2,0.8,4,1.6,6,2.3c0,0,17.4,5.9,35.7,5.6c6.9,0.4,13.9,0.8,20.8,1.2
		c29.5-2.9,59.1-4.5,88.2-11.6c18.3-4.4,18.9-2.8,23.7,16c6.2,24,10.3,48.3,13.7,72.9c2,14.3-4.5,18.9-15.2,22.2
		c-30.7,9.7-60.5,21.8-90.6,32.9c-38.9,14.4-78.2,27.8-116.6,43.7C587.6,549.9,580.2,556,575.4,547z M799.7,308.5
		c-2.5-11.6,7.5-10.2,13.8-10.9c11.2,0.2,26.5,11.9,26,19.4c-0.4,5.7-21.2,20.4-28.6,18.6C795.8,332.1,801.7,318,799.7,308.5z
		 M827.9,702.3c-8.4,34.7-38,52.3-70.2,38.9c-64.7-26.8-112.6-72.2-150.9-129c-8-11.8-13.7-25.1-21.1-37.4
		c-5.2-8.8-2.7-12.9,6.4-16.5c32.7-13,65.8-24.5,98.9-36.2c36.7-13,73-27.3,109.4-40.9c19.2-7.2,19.5-6.9,22.2,14.3
		c6.1,48.6,9.5,97.4,11.1,144.5C831.4,661.9,832.7,682.1,827.9,702.3z M1117.1,298.7c-15.8,25.1-39.9,41.5-64.8,55.3
		c-65.4,36.3-132.8,68.6-202.1,96.8c-19.1,7.8-24.1,6.5-24.8-13c-1-25.3-10.6-48.7-12.9-73.7c-0.8-8.4,0.6-12.8,8.7-15.9
		c10.6-3.9,21.1-8.5,28.7-17.7c11.1-13.6,6-33.9-10.6-39.7c-16.7-5.8-34-5.7-51.4-2.8c-10.6,1.8-12.9,7.6-9.2,17
		c3.3,8.3,6.2,16.7,9.7,24.9c3.7,8.9,1.7,13.3-8.4,15.7c-30.5,7.3-61.2,11.7-98.6,12.1c-22.9-1.9-52.6-1.8-77.2-20.9
		c-22.6-17.6-26.5-42.1-21.9-68.3c3.4-19.8,14.9-36.4,23.8-54c4.1-7.9,12.1-9.4,20.1-10.9c77.3-14.3,155.3-17.3,233.7-14.9
		c70.7,2,140.1,11.5,207.2,34.7c15.6,5.4,30.1,12.8,42.5,23.5C1126.9,262.1,1129.4,279.3,1117.1,298.7z"/>
	<path class="st1" d="M685.3,717.7L685.3,717.7C685.3,717.7,685.3,717.7,685.3,717.7l0.2-0.4"/>
	<path class="st1" d="M677,711c0,0-0.1,0-0.1,0c0,0,0-0.1,0-0.2C676.8,710.9,676.9,710.9,677,711C677,711,677,711,677,711"/>
	<path class="st1" d="M676.9,710.9L676.9,710.9c0.1,0,0.1,0,0.1,0"/>
	<path class="st1" d="M676.8,710.9c0,0,0,0.1,0,0.2c0.2,1.2,0.4,2.2,0.9,3.1"/>
	<path class="st1" d="M685.3,717.7c0,0,0.1,0,0.1,0c0,0,0-0.1,0-0.1"/>
</g>
</svg>
